<svg aria-hidden="true" style="width:0;height:0;position:absolute;overflow:hidden" xmlns="http://www.w3.org/2000/svg"><defs><symbol id="icon-telegram" viewBox="0 0 32 32"><path fill="#f8d24e" style="fill:var(--color1,#f8d24e)" d="M32.235 16c0 8.837-7.163 16-16 16s-16-7.163-16-16 7.163-16 16-16 16 7.163 16 16z"/><path d="m13.102 18.375-.317 4.17c.454 0 .65-.183.887-.401l2.13-1.9 4.415 3.017c.81.42 1.38.199 1.598-.695l2.898-12.673c.258-1.118-.432-1.554-1.22-1.28L6.46 14.699c-1.163.42-1.145 1.026-.198 1.3l4.355 1.264 10.114-5.907c.476-.294.91-.131.553.163l-8.182 6.856z"/></symbol><symbol id="icon-facebook" viewBox="0 0 32 32"><path fill="#f8d24e" style="fill:var(--color1,#f8d24e)" d="M16 32c8.837 0 16-7.163 16-16S24.837 0 16 0 0 7.163 0 16s7.163 16 16 16z"/><path d="M20.446 15.981h-2.61V25.6H13.88v-9.62H12V12.6h1.88v-2.187c0-1.565.74-4.014 3.99-4.014l2.93.012v3.281h-2.125c-.35 0-.84.176-.84.922v1.99h2.956l-.345 3.376z"/></symbol><symbol id="icon-github" viewBox="0 0 32 32"><path fill="#f8d24e" style="fill:var(--color1,#f8d24e)" d="M32 16c0 8.837-7.163 16-16 16S0 24.837 0 16 7.163 0 16 0s16 7.163 16 16z"/><path d="M16 6.588c-5.17 0-9.412 4.242-9.412 9.412 0 4.411 3.095 8.418 7.206 9.412v-3.114a2.307 2.307 0 0 1-1.197-.03c-.556-.165-1.008-.535-1.344-1.1-.213-.361-.592-.752-.988-.723l-.097-1.1c.855-.072 1.595.522 2.034 1.26.195.327.42.52.707.605.279.082.578.042.926-.08.088-.698.407-.96.649-1.327-2.452-.366-3.429-1.667-3.816-2.693-.514-1.363-.239-3.066.67-4.142.018-.021.05-.076.037-.114-.416-1.259.091-2.3.11-2.41.48.142.559-.143 2.088.786l.265.159c.11.066.076.028.186.02a7.785 7.785 0 0 1 1.97-.279H16a7.986 7.986 0 0 1 2.058.299l-.056-.014.085.008c-.007 0 .024-.005.075-.036 1.911-1.157 1.842-.779 2.355-.945.018.11.52 1.168.107 2.41-.055.172 1.657 1.74.708 4.256-.388 1.027-1.365 2.328-3.816 2.693v.001c.314.479.691.734.69 1.722v3.887c4.11-.994 7.205-5 7.205-9.412 0-5.17-4.242-9.412-9.411-9.412z"/></symbol><symbol id="arrow-little" viewBox="0 0 12 12" fill="none"><path d="m4 2 4.95 4L4 10" stroke-width="2" stroke-linecap="round" stroke-linejoin="round"/></symbol><symbol id="arrow-button-default" viewBox="0 0 82 32"><path d="M81.414 17.414c.362-.362.586-.862.586-1.414s-.224-1.052-.586-1.414L68.686 1.858a2 2 0 1 0-2.829 2.827l.001.001L77.172 16 65.858 27.314a2 2 0 0 0 2.829 2.827l-.001.001 12.728-12.728zM0 18h80v-4H0v4z"/></symbol><symbol id="arrow-button-focus" viewBox="0 0 69 32"><path d="M68.08 17.413c.361-.362.585-.861.585-1.413s-.224-1.052-.585-1.413L55.353 1.858a2.001 2.001 0 0 0-2.83 2.83l11.316 11.313-11.315 11.313a2.001 2.001 0 0 0 2.83 2.83l12.728-12.728zM0 18h66.667v-4H0v4z"/></symbol><symbol id="arrow-button-hover" viewBox="0 0 102 32"><path d="M101.414 17.414c.362-.362.586-.862.586-1.414s-.224-1.052-.586-1.414L88.686 1.858a2 2 0 1 0-2.829 2.827l.001.001L97.172 16 85.858 27.314a2 2 0 0 0 2.829 2.827l-.001.001 12.728-12.728zM0 18h100v-4H0v4z"/></symbol><symbol id="white-arrow" viewBox="0 0 82 32"><path fill="#fcfcfc" style="fill:var(--color1,#fcfcfc)" d="M81.414 17.414c.362-.362.586-.862.586-1.414s-.224-1.052-.586-1.414L68.686 1.858a2 2 0 1 0-2.829 2.827l.001.001L77.172 16 65.858 27.314a2 2 0 0 0 2.829 2.827l-.001.001 12.728-12.728zM0 18h80v-4H0v4z"/></symbol><symbol id="burger" viewBox="0 0 50 32"><path fill="none" stroke="#fff" style="stroke:var(--color1,#fff)" stroke-linecap="round" stroke-width="4.571" d="M2.286 2.286H48M2.286 16H48M2.286 29.714H48"/></symbol><symbol id="mobile-menu-button--close" viewBox="0 0 32 32"><path fill="#fff" style="fill:var(--color1,#fff)" d="M23.884 6.706 16 14.59 8.116 6.706a.996.996 0 0 0-1.672.736c0 .26.099.497.262.674l-.001-.001 7.88 7.884-7.882 7.882a.998.998 0 0 0 1.41 1.412l7.886-7.882 7.884 7.884a.996.996 0 0 0 1.672-.736.992.992 0 0 0-.262-.674l.001.001-7.884-7.884 7.884-7.886a.998.998 0 0 0-1.41-1.412v.002z"/></symbol><symbol id="cow" viewBox="0 0 32 32"><path d="M6.169.192c-.262.226-1.008 1.781-1.276 2.631-.318 1.052-.427 1.84-.384 2.93.058 1.556.449 2.736 1.31 3.968.225.324.406.601.406.624 0 .015-.138.03-.311.03-.747 0-2.144.248-3.215.571-1.7.512-2.7 1.405-2.7 2.405 0 .354.318.955.659 1.262.659.595 2.1 1.158 3.649 1.428.536.098 2.129.263 2.484.27.065 0 .087.347.087 1.481 0 .977.036 1.736.108 2.202.26 1.668 1.071 3.434 2.142 4.682l.37.428-.246.398c-.362.564-.5.992-.542 1.63-.109 1.533.846 2.893 2.693 3.848 3.517 1.826 8.984 1.112 11.033-1.443.999-1.248 1.115-2.676.325-3.968l-.246-.398.442-.533c.826-.992 1.361-1.984 1.766-3.239.34-1.067.471-2.097.471-3.728 0-.743.021-1.36.058-1.36.333-.007 1.933-.18 2.44-.27 1.556-.27 2.969-.827 3.649-1.428.34-.308.659-.909.659-1.262 0-1.113-1.129-2.014-3.229-2.556-.687-.18-1.983-.398-2.613-.436l-.297-.023.326-.451c.405-.548.912-1.616 1.108-2.315.55-2.021.21-4.373-.97-6.62-.493-.932-.834-1.15-1.231-.783-.152.144-.218.339-.362 1.045-.449 2.247-1.282 4.028-2.498 5.342l-.536.587H10.245l-.478-.518C8.58 5.315 7.718 3.467 7.269 1.212 7.124.505 7.059.311 6.907.168c-.239-.218-.471-.211-.738.022zm.925 4.457c.384.841.862 1.63 1.426 2.359l.449.579-.47.353c-.442.338-.854.82-1.173 1.369l-.137.247-.348-.474c-1.188-1.637-1.484-3.644-.854-5.726.304-1.006.297-.999.572-.127.131.42.377 1.06.536 1.42zm18.845-1.586c.262.728.414 1.569.414 2.444l-.001.093v-.005c0 1.367-.362 2.524-1.122 3.562l-.34.466-.253-.428a4.534 4.534 0 0 0-1.254-1.381l-.013-.009c-.196-.127-.347-.255-.347-.27 0-.022.137-.196.311-.383.804-.894 1.665-2.502 2.092-3.885.13-.428.26-.782.282-.782s.131.264.231.58zM22.24 8.556c.804.338 1.571 1.307 1.694 2.126.065.451.217.737.412.782.087.014.688.067 1.332.112 2.287.151 4.09.639 4.858 1.308.355.316.318.579-.108.902-.854.646-2.7 1.134-4.583 1.218-1.245.052-1.506.089-1.673.262-.123.128-.137.263-.137 1.623 0 1.842-.094 2.901-.326 3.757-.325 1.164-.97 2.405-1.723 3.284l-.311.361-.644-.384a7.832 7.832 0 0 0-2.335-.958l-.054-.011c-2.744-.654-5.778-.256-7.819 1.029l-.471.3-.297-.353c-.405-.474-1.043-1.488-1.296-2.059-.557-1.293-.724-2.345-.724-4.66 0-2.247.116-2.082-1.549-2.172-2.129-.113-3.751-.496-4.772-1.142-.753-.481-.629-.909.42-1.413 1.006-.489 2.388-.781 4.308-.901 1.492-.098 1.527-.121 1.665-.842.203-1.09 1.006-1.991 2.02-2.277.253-.075 1.672-.09 6.016-.083l5.684.015.412.173zm-4.069 15.556c1.774.436 3.099 1.247 3.671 2.254.138.233.196.474.224.842.029.458.008.571-.166.947-.804 1.707-3.757 2.833-6.762 2.578-3.612-.3-5.988-2.315-5.053-4.291.507-1.068 2.222-2.089 4.032-2.39.297-.044.594-.098.652-.113s.71-.015 1.449 0c1.005.023 1.491.068 1.954.173z"/><path d="M10.99 12.321c-.449.151-.753.347-1.158.752-.356.338-.384.736-.087.977.276.225.536.196.868-.098.42-.368.747-.518 1.152-.518.405-.008.716.135 1.15.518.333.293.594.323.869.098.145-.12.188-.218.188-.444 0-.232-.051-.338-.305-.593-.716-.721-1.78-.999-2.678-.692zm8.441-.008c-.462.173-1.057.564-1.295.857-.232.286-.24.609 0 .85.238.255.528.24.876-.045.854-.707 1.492-.729 2.281-.076.203.173.434.308.507.308.355 0 .644-.316.644-.692 0-.24-.601-.796-1.144-1.06-.601-.293-1.317-.346-1.868-.142zM12.04 26.224c-.21.203-.283.496-.174.729.08.188.203.263.702.398.225.06.319.135.398.323.101.249.109.249.667.271l.557.022v-.211c-.007-.3-.174-.736-.391-1.036-.253-.347-.695-.572-1.195-.617-.34-.03-.427-.015-.564.121zm6.914-.053c-.362.098-.883.587-1.028.969a2.525 2.525 0 0 0-.137.677v.008c-.014.323.014.398.188.556.427.376.992.083.992-.518 0-.293.217-.496.601-.572.405-.075.55-.24.557-.623 0-.504-.449-.699-1.173-.496z"/></symbol><symbol id="weight" viewBox="0 0 32 32"><path d="M14.178.547c-3.974.589-7.247 2.796-8.452 5.685-.384.913-.487 1.474-.487 2.573.007.812.036 1.114.163 1.552.258.862.443 1.301.827 1.92l.356.574-.4.489c-3.154 3.924-3.501 9.444-.871 13.793.982 1.632 2.586 3.235 4.151 4.169l.466.273 12.743-.108.302-.165c1.057-.596 2.548-1.926 3.383-3.004a12.51 12.51 0 0 0 2.413-5.546l.01-.074c.118-.74.118-2.933-.007-3.63-.377-2.148-1.182-3.988-2.452-5.62-.244-.309-.436-.568-.436-.589 0-.014.133-.237.288-.489a7.777 7.777 0 0 0 .864-1.962c.199-.719.199-2.516 0-3.235-.709-2.551-2.836-4.679-5.843-5.851-.843-.331-2.284-.683-3.214-.797-.864-.1-2.999-.08-3.804.043zm4.498 1.171c3.945.769 6.834 3.184 7.365 6.16.118.668.044 1.804-.155 2.436-.2.618-.569 1.344-1.004 1.962-.178.252-.325.54-.325.633s.155.338.377.582c1.846 2.048 2.821 4.614 2.821 7.388-.007 3.156-1.219 5.923-3.553 8.093-.399.373-.968.841-1.271 1.042l-.554.373-12.211.051-.473-.302c-1.714-1.113-3.258-2.953-4.115-4.908-1.078-2.472-1.189-5.34-.31-7.913.466-1.337 1.086-2.429 2.031-3.58.385-.46.562-.733.562-.862 0-.108-.192-.46-.444-.827-.886-1.287-1.248-2.717-1.034-4.068.222-1.365.842-2.487 1.987-3.601 1.493-1.444 3.576-2.4 6.021-2.76 1.012-.151 3.25-.093 4.284.1z"/><path d="M14.509 2.983c-3.028.496-5.4 2.178-6.175 4.385-.178.496-.207.69-.207 1.402s.029.905.207 1.401c.11.316.317.756.458.978.384.618.554.64 1.316.18a11.719 11.719 0 0 1 3.727-1.474l.078-.014c.916-.187 2.674-.258 3.671-.143 1.558.18 3.25.74 4.602 1.538.384.222.776.409.871.409.562 0 1.278-1.617 1.278-2.874 0-2.796-2.674-5.19-6.463-5.787-.805-.129-2.587-.129-3.362 0zm3.657 1.15c1.271.273 2.437.791 3.317 1.474 1.182.913 1.817 2.185 1.713 3.413-.036.489-.221 1.15-.332 1.222-.03.014-.444-.158-.916-.388a14.138 14.138 0 0 0-3.131-1.081l-.097-.018c-.687-.143-.975-.165-2.511-.158-1.515 0-1.832.022-2.489.158a13.283 13.283 0 0 0-3.196 1.099l.078-.035c-1.1.524-1.042.532-1.241-.116-.258-.84-.096-1.955.406-2.796.267-.445.997-1.186 1.529-1.552 1.012-.698 1.899-1.013 3.804-1.359.391-.071 2.564.029 3.066.137zm-1.203 9.271c-.207.26-.207.504.007.712.14.137.281.172.791.209a6.489 6.489 0 0 1 2.815.865l-.031-.017c.606.359 1.529 1.229 1.943 1.854.613.898 1.034 2.185 1.034 3.134 0 .331.03.431.185.574.236.237.547.237.776 0 .163-.165.169-.208.125-.912-.207-3.479-3.184-6.382-6.744-6.578l-.74-.043-.162.202z"/></symbol><symbol id="ice-cream" viewBox="0 0 32 32"><path d="M16.108.107c.08.215.241 1.252.241 1.573v.011c0 .818-.318 1.561-.838 2.114l.001-.002c-.449.482-.898.749-1.975 1.185-1.198.489-1.694.783-2.256 1.339-.569.569-.904 1.191-1.024 1.922-.134.796 0 1.358.408 1.68l.207.16-.328.208c-.662.436-1.867 1.46-2.075 1.774-.402.603-.362 1.164.093 1.393l.214.107-.241.228c-.362.341-.436.576-.382 1.191.034.409.02.63-.073.964-.114.436-.114.442.033.75.148.301.563.683.938.844.18.08.187.107.228.723.02.356.053 1.486.08 2.517.02 1.031.068 1.975.107 2.089.034.12.161.281.276.361.388.268.656.556.829.891.195.382.409 1.319 1.058 4.559l.455 2.276.282.268c.535.529 1.56.77 3.247.77 1.693 0 2.704-.235 3.24-.764l.288-.274.414-2.109c.916-4.612.997-4.867 1.714-5.436.22-.181.436-.402.475-.502.047-.114.094-.991.127-2.316.027-1.178.068-2.343.094-2.591l.04-.448.436-.329c.548-.421.763-.803.763-1.392-.006-.696-.462-1.46-1.292-2.142l-.396-.321.195-.276c.81-1.117.301-2.664-1.205-3.694l-.455-.315.167-.174c.743-.796.864-3.173.241-4.827-.374-.984-1.232-2.055-2.283-2.845-.514-.388-1.934-1.245-2.06-1.245-.027 0-.027.047-.006.107zm1.928 2.337c.356.348.783.823.951 1.064.997 1.393 1.252 3.14.649 4.426-.241.522-.964 1.298-1.634 1.76-1.024.71-3.327 1.902-4.933 2.557-2.584 1.052-4.084 1.252-4.258.563-.068-.261.127-.468.951-1.018.742-.508 4.076-2.986 4.136-3.086.02-.027-.321.127-.749.341-1.452.737-2.142.596-2.108-.428.02-.743.556-1.587 1.298-2.068.188-.12.771-.388 1.307-.603 1.76-.709 2.296-1.071 2.892-1.961.356-.529.743-1.507.77-1.922.007-.147.034-.261.053-.261s.322.288.676.636zm1.827 7.606c.489.274.997.743 1.218 1.111.389.662.188 1.325-.649 2.169-.91.924-2.463 1.808-4.171 2.37-1.573.516-3.079.756-5.236.83l-1.339.047.871.053c1.124.074 3.3.007 4.143-.127 2.243-.356 4.151-1.065 5.516-2.042.308-.221.629-.402.716-.402.221 0 1.185.924 1.38 1.312.107.221.133.382.114.596-.1.891-1.186 1.366-3.803 1.68-3.2.382-7.384.007-9.172-.816-.844-.388-.984-.61-.77-1.198.067-.188.08-.409.053-.724-.034-.415-.027-.468.12-.622.335-.362.898-.569 2.96-1.092.723-.187 1.707-.482 2.175-.656 1.138-.415 3.274-1.493 4.264-2.156.931-.616 1.065-.643 1.607-.334zm-8.891 8.194c1.406.409 2.652.529 4.968.482 1.74-.033 2.812-.14 4.357-.415.316-.053.589-.1.623-.1.074 0 .053 2.571-.027 3.247-.087.716-.282 1.272-.489 1.406-.214.14-1.285.288-2.718.368-2.939.16-5.958 0-6.895-.375-.508-.207-.563-.476-.569-2.959 0-1.653.013-1.881.1-1.847.053.02.348.107.649.194zm1.587 5.69c.482.06 1.004.12 1.164.14l.289.034-.255.281c-.328.355-.83 1.064-1.011 1.426-.207.415-.275.442-.582.275l-.261-.148-.147-.91a23.34 23.34 0 0 0-.216-1.217l.028.165c-.06-.173-.121-.173.99-.046zm7.137-.074c0 .013-.034.187-.068.382-.04.2-.207 1.292-.374 2.429-.341 2.377-.569 3.494-.777 3.869-.288.502-.978.796-2.095.891-.436.034-1.748-.053-1.821-.121-.053-.06 1.098-1.486 1.279-1.58.167-.094.213-.08.782.213.663.349.998.403.998.181s-.174-.436-.603-.729c-.395-.282-.535-.443-.535-.63 0-.053.194-.355.428-.669s.575-.817.749-1.118l.329-.542.3.041c.609.087.77.08.75-.053-.013-.068-.127-.261-.255-.422-.127-.167-.228-.335-.228-.368 0-.127.622-1.299.824-1.547.174-.214.315-.322.315-.228zm-4.184.536c.334.221 1.593 1.313 1.673 1.446.034.06-1.258 2.082-1.513 2.37-.027.034-.167-.033-.308-.14a20.117 20.117 0 0 0-1.08-.752l-.085-.052-.904-.596.542-.917c.964-1.613.944-1.587 1.151-1.587.107 0 .341.1.523.228zm2.537.24c-.235.288-.428.469-.508.469-.174 0-.456-.154-.931-.502l-.396-.288.791-.047c.348-.013.665-.034.98-.065l-.064.005c.536-.087.536-.08.128.428zm-5.061 3.221c.616.241 1.66.81 1.962 1.065.214.173.214.187.127.401a6.654 6.654 0 0 1-.43.741l.015-.024a10.9 10.9 0 0 0-.417.682l-.032.061c-.213.415-.281.449-.723.329-.476-.141-.729-.382-.863-.818-.181-.609-.469-2.329-.436-2.597.013-.1.294-.04.796.161z"/></symbol><symbol id="modal-close" viewBox="0 0 32 32"><path d="m17.253 16 7.37-7.37a.89.89 0 0 0-1.256-1.252l.001-.001L16 14.747 8.63 7.369a.893.893 0 0 0-1.262 1.262l-.001-.001L14.745 16l-7.376 7.368a.89.89 0 1 0 1.252 1.256l.001-.001 7.376-7.37 7.37 7.37a.89.89 0 0 0 1.254-1.256l.001.001L17.253 16z"/></symbol><symbol id="close-little" viewBox="0 0 32 32"><path d="m17.254 16 7.368-7.368a.89.89 0 0 0-1.254-1.253l.001-.001-7.37 7.368-7.368-7.378a.893.893 0 0 0-1.262 1.264L14.747 16l-7.38 7.368a.89.89 0 1 0 1.253 1.255l.001-.001 7.38-7.368 7.368 7.368a.89.89 0 0 0 1.25-1.256l.001.001-7.368-7.368z"/></symbol><symbol id="icon-up" viewBox="0 0 20 32"><path d="m10.186 5.414-6.361 6.361A2.243 2.243 0 1 1 .653 8.603L8.726.538l.087-.071L8.9.404l.095-.063.095-.055.11-.055.087-.039.205-.079.095-.032.055-.016.103-.024.11-.016.103-.016.11-.008h.221l.11.008.103.016.11.016.103.024.118.032.095.032.189.079.118.055.079.047.189.126.174.142.079.071 7.947 7.955a2.243 2.243 0 1 1-3.172 3.172L10.17 5.415z"/><path d="M10.186 15.199 3.825 21.56a2.243 2.243 0 1 1-3.172-3.172l8.073-8.065.087-.071.087-.063.095-.063.095-.055.11-.055.087-.039.205-.079.095-.032.055-.016.103-.024.11-.016.103-.016.11-.008h.221l.11.008.103.016.11.016.103.024.118.032.095.032.189.079.118.055.079.047.189.126.174.142.079.071 7.947 7.955a2.243 2.243 0 1 1-3.172 3.172L10.17 15.2z"/><path d="m10.186 24.984-6.361 6.361a2.243 2.243 0 1 1-3.172-3.172l8.073-8.065.087-.071.087-.063.095-.063.095-.055.11-.055.087-.039.205-.079.095-.032.055-.016.103-.024.11-.016.103-.016.11-.008h.221l.11.008.103.016.11.016.103.024.118.032.095.032.189.079.118.055.079.047.189.126.174.142.079.071 7.947 7.955a2.243 2.243 0 1 1-3.172 3.172l-6.361-6.361z"/></symbol></defs></svg>